Coordinates
version=1
nRows=10
nColumns=34
inDegrees=yes

Units are S.I. units (second, meters, Newtons, ...)
If the header above contains a line with 'inDegrees', this indicates whether rotational values are in degrees (yes) or radians (no).

endheader
time	pelvis_tilt	pelvis_list	pelvis_rotation	pelvis_tx	pelvis_ty	pelvis_tz	hip_flexion_l	hip_adduction_l	hip_rotation_l	hip_flexion_r	hip_adduction_r	hip_rotation_r	knee_angle_l_beta	knee_angle_r_beta	knee_angle_l	knee_angle_r	ankle_angle_l	ankle_angle_r	subtalar_angle_l	subtalar_angle_r	mtp_angle_l	mtp_angle_r	lumbar_ext	lumbar_bend	lumbar_rota	shoulder_flexion_r	shoulder_adduction_r	shoulder_rotation_r	elbow_flexion_r	shoulder_flexion_l	shoulder_adduction_l	shoulder_rotation_l	elbow_flexion_l
      0.19000000	     24.92475031	     17.04975612	     -0.26112097	     -0.03534418	      0.96199579	     -0.26762548	     -4.64205728	     17.20104307	     -4.58360866	    -38.34682380	    -17.37824714	    -27.65107145	      0.37631653	      0.79448213	    -21.56134878	    -45.52047283	     -2.35495745	    -12.13374086	      5.67639030	      5.17780927	     10.18163983	      6.85726178	    -42.16779798	    -21.35458404	     -6.66987460	      9.49645251	      2.38003377	      0.90126225	     64.49599304	    -15.68551700	      2.47420432	    -30.67884437	     45.66423715
      0.20000000	     25.05552303	     17.16008290	     -0.49623740	     -0.02220390	      0.96394014	     -0.26833446	     -5.70900650	     17.52582476	     -4.12557463	    -36.82109033	    -18.45102029	    -27.12496498	      0.37281098	      0.85104238	    -21.36049547	    -48.76113676	     -1.70101094	    -13.19560576	      4.97714573	      2.85496114	     10.23043046	      6.53043973	    -42.25816243	    -21.47135775	     -6.77836909	      8.99351021	      2.39184569	      0.91345901	     62.55793295	    -15.28969703	      2.53903528	    -29.98467294	     45.96553494
      0.21000000	     25.12136672	     17.11243475	     -0.73343079	     -0.00959531	      0.96592635	     -0.26899619	     -6.71091457	     17.70093421	     -3.66851980	    -35.03241262	    -19.34399227	    -26.34881055	      0.36815029	      0.90609333	    -21.09345765	    -51.91532363	     -1.21492642	    -13.75903676	      4.09242423	      0.43834253	     10.14333073	      5.67161418	    -42.28219474	    -21.43392220	     -6.85562221	      8.60978425	      2.38391906	      1.01755576	     60.47350583	    -14.80078581	      2.63951670	    -29.35414414	     46.19075674
      0.22000000	     25.18568012	     16.86623652	     -0.89153488	      0.00243543	      0.96806734	     -0.26967886	     -7.71411093	     17.67520393	     -3.08932481	    -33.05692390	    -19.92026153	    -25.40403713	      0.36355108	      0.96134912	    -20.82994240	    -55.08124699	     -0.75028521	    -13.63056039	      3.24826331	     -1.62274763	      9.01379754	     -0.67671185	    -42.37420920	    -21.14913948	     -6.93636925	      8.29266379	      2.35492872	      1.09106960	     58.44805664	    -14.19688755	      2.76485713	    -28.77949230	     46.38097133
      0.23000000	     25.37913565	     16.60794951	     -1.16220336	      0.01451768	      0.97037765	     -0.27023828	     -8.94671174	     17.62042683	     -2.68889305	    -31.25358682	    -20.50692883	    -24.45649098	      0.35522987	      1.00702003	    -20.35317254	    -57.69799759	     -0.26715962	    -13.37826686	      2.55656763	     -3.49407573	      8.85370014	     -1.00425516	    -42.53044575	    -20.88034247	     -6.99684164	      8.01047632	      2.32518834	      1.19296297	     56.29955486	    -13.63909476	      2.83911604	    -27.91942301	     46.66015792
      0.24000000	     25.43097378	     16.21292005	     -1.31985100	      0.02614052	      0.97260976	     -0.27085430	    -10.00488479	     17.41807900	     -2.17549900	    -29.16284928	    -20.83094040	    -23.40083485	      0.34804636	      1.05110426	    -19.94158774	    -60.22383821	      0.18622594	    -12.65564003	      1.87066846	     -5.03945236	      7.52020848	     -4.36269935	    -42.60151704	    -20.43159274	     -7.07394775	      7.75497443	      2.28627958	      1.26197836	     54.24941663	    -12.98111909	      2.91818250	    -27.18097003	     46.89096432
      0.25000000	     25.83319481	     15.76339497	     -1.35962296	      0.03758978	      0.97536762	     -0.27157442	    -11.53597025	     17.07964711	     -1.46896981	    -27.62407619	    -20.95868083	    -22.61238740	      0.33828130	      1.08459211	    -19.38209087	    -62.14255037	      0.65265271	    -11.76378100	      1.70280620	     -5.88507971	      7.45944128	     -4.25175558	    -43.13752467	    -19.78406046	     -7.30465122	      7.40456116	      2.29380272	      1.00179415	     52.59424966	    -12.29517413	      3.00274593	    -26.44089970	     47.28090319
      0.26000000	     25.78295044	     15.13813373	     -1.68658493	      0.04901691	      0.97747990	     -0.27183243	    -12.46486408	     16.61752744	     -1.50543547	    -25.27724230	    -20.98111896	    -21.22569841	      0.32962979	      1.11637631	    -18.88639576	    -63.96365082	      0.93411642	    -10.78491417	      0.91997391	     -6.96284234	      6.97954628	     -4.59340746	    -42.95027170	    -19.23963471	     -7.15237273	      7.27878032	      2.17631578	      1.30716497	     50.22240505	    -11.60317819	      2.96754141	    -25.31988327	     47.42610178
      0.27000000	     26.00047696	     14.54305138	     -1.69327903	      0.06034981	      0.97998417	     -0.27247434	    -13.80169868	     16.09556656	     -1.02478569	    -23.51349273	    -20.80963913	    -20.37922815	      0.31935741	      1.13885018	    -18.29783195	    -65.25130889	      1.35962298	     -9.53553657	      0.69172349	     -7.32595678	      6.72956949	     -4.56675984	    -43.22152631	    -18.45517197	     -7.30922118	      6.97184472	      2.18085693	      0.99601553	     48.41811075	    -10.90413021	      2.96265898	    -24.40573709	     47.90889479
      0.28000000	     26.11700505	     13.85637434	     -1.73460954	      0.07157671	      0.98230398	     -0.27296996	    -14.97964889	     15.46948244	     -0.73098356	    -21.59371484	    -20.49287192	    -19.41301536	      0.31008040	      1.15636246	    -17.76629825	    -66.25468865	      1.71820980	     -8.21427444	      0.40588898	     -7.19677645	      6.38300990	     -4.45089005	    -43.35921393	    -17.63239462	     -7.38164503	      6.68296486	      2.12944089	      0.79411140	     46.60443093	    -10.15025389	      2.87138407	    -23.34978364	     48.23007629
